<svg version="1.1" id="Layer_1" xmlns="http://www.w3.org/2000/svg" xmlns:xlink="http://www.w3.org/1999/xlink" x="0px" y="0px"
	 width="100%" viewBox="0 0 502 146" enable-background="new 0 0 0 0" xml:space="preserve">
<path fill="white" opacity="1.000000" stroke="none" 
	d="
M364.000000,147.000000 
	C242.666733,147.000000 121.833466,147.000000 1.000146,147.000000 
	C1.000097,98.333427 1.000097,49.666847 1.000049,1.000205 
	C168.333145,1.000136 335.666290,1.000136 502.999573,1.000068 
	C502.999725,49.666458 502.999725,98.332916 502.999878,146.999695 
	C456.833344,147.000000 410.666656,147.000000 364.000000,147.000000 
M164.943771,83.522591 
	C163.430130,87.547180 161.916489,91.571770 159.961624,96.032082 
	C158.776474,94.738174 157.063446,93.642723 156.490509,92.118668 
	C152.283188,80.926994 148.499603,69.572861 144.136017,58.444988 
	C142.791962,55.017437 140.557037,51.591236 137.855652,49.120388 
	C133.053009,44.727592 125.203644,45.561783 122.220894,50.398170 
	C123.658493,51.645027 125.388428,52.740860 126.575134,54.260818 
	C128.885773,57.220345 131.468857,60.174099 132.901306,63.568226 
	C135.673645,70.137154 137.653122,77.036423 140.097046,83.749329 
	C143.051117,91.863503 146.345078,99.859207 149.105087,108.036751 
	C150.747299,112.902443 151.345993,117.868744 147.929077,122.614952 
	C144.931366,126.778862 140.912659,123.905952 137.517441,124.807014 
	C135.574905,125.322556 132.961319,126.674042 132.380264,128.276581 
	C131.043472,131.963425 132.106552,136.216644 135.767746,137.667252 
	C137.963181,138.537094 141.980347,137.348236 143.931778,135.650970 
	C146.362289,133.537018 147.582397,129.985229 149.181381,126.977875 
	C150.224915,125.015175 151.038635,122.927513 151.910706,120.876884 
	C155.424515,112.614365 158.920975,104.344467 162.911423,95.569496 
	C164.260162,91.853157 165.608917,88.136818 167.243149,84.058868 
	C167.370697,83.621307 167.498245,83.183746 168.026672,82.148834 
	C171.790878,70.950706 175.555084,59.752571 179.319290,48.554440 
	C178.700516,48.361919 178.081741,48.169403 177.462967,47.976887 
	C171.955917,58.577271 169.295883,70.199684 165.746155,81.855583 
	C165.627686,82.203575 165.509232,82.551567 164.943771,83.522591 
M224.864685,48.876392 
	C229.646027,51.896545 234.427383,54.916698 239.187347,57.923347 
	C236.873627,52.228008 232.484665,48.487026 225.204224,46.790112 
	C218.054840,45.719753 210.914047,44.808594 203.302399,48.091190 
	C201.981277,48.797314 200.617355,49.434196 199.345764,50.220421 
	C188.330704,57.031033 187.778183,71.013885 198.403732,78.435791 
	C201.218109,80.401611 204.558807,81.723480 207.810364,82.929985 
	C213.735458,85.128502 219.803009,86.939903 225.757874,89.062248 
	C231.256149,91.021866 234.509003,94.594200 234.744629,100.868584 
	C234.972397,106.934265 232.168121,110.596939 226.147903,112.847672 
	C225.122116,113.107857 224.096329,113.368050 223.070541,113.628235 
	C223.147873,114.010262 223.225220,114.392296 223.302567,114.774323 
	C224.336838,114.774323 225.371094,114.774323 227.357224,114.884514 
	C228.832184,114.639572 230.325363,114.473297 231.779144,114.136856 
	C240.993484,112.004517 246.548004,106.886391 247.200317,99.984573 
	C247.951279,92.039291 243.520264,84.954086 234.993683,81.288574 
	C230.119537,79.193207 224.886536,77.938637 219.989334,75.889198 
	C214.658112,73.658119 209.073700,71.586769 204.420242,68.288170 
	C197.815628,63.606510 197.985596,55.395908 204.719345,49.803600 
	C211.242020,49.349087 217.764709,48.894573 224.864685,48.876392 
M21.939138,55.397259 
	C21.709114,54.610611 21.479090,53.823959 21.435596,52.438354 
	C21.279179,51.629414 21.122759,50.820469 20.989708,49.238010 
	C17.330711,48.883770 13.671717,48.529526 9.383525,47.991928 
	C9.010318,48.667423 8.637110,49.342918 8.010742,50.874832 
	C8.075712,53.250126 8.140682,55.625420 7.985288,58.867638 
	C8.061648,61.244789 8.138009,63.621941 8.007048,66.916145 
	C8.043327,80.463760 8.237228,94.013809 8.028830,107.557655 
	C7.957644,112.184067 9.355859,114.078636 14.654519,113.154503 
	C15.103030,113.078438 15.551542,113.002380 16.870728,113.135132 
	C18.238115,113.015480 19.605505,112.895821 20.989162,112.774742 
	C20.989162,109.502182 20.989162,106.749741 21.246399,103.260422 
	C21.156961,99.842575 21.067526,96.424721 21.179564,92.092537 
	C21.112190,87.393036 21.044815,82.693527 21.234774,77.253525 
	C21.270302,74.489388 21.305830,71.725250 21.727623,68.258057 
	C22.961536,65.218552 24.195452,62.179054 25.974829,58.881573 
	C26.754398,57.972416 27.533968,57.063263 28.976980,56.009987 
	C30.993610,54.879208 33.010239,53.748425 35.522301,52.706161 
	C35.776119,52.509800 36.029942,52.313435 37.117207,52.178974 
	C45.909981,51.642365 51.050457,55.092709 53.138508,63.495636 
	C54.126534,67.471756 54.721413,71.631294 54.825024,75.724678 
	C55.088799,86.145767 54.975597,96.576401 54.762131,107.534058 
	C54.852234,108.685699 54.942333,109.837341 55.014698,111.838554 
	C59.083649,112.420372 63.152599,113.002190 67.702362,113.652756 
	C67.702362,103.741135 67.510513,94.833015 67.756447,85.936989 
	C68.001183,77.083977 68.685585,68.243134 69.824448,59.116894 
	C74.464981,52.841164 80.779953,50.750870 88.053658,52.874779 
	C95.394279,55.018230 97.309135,61.331249 98.037193,68.114128 
	C98.179039,69.435638 98.190926,70.775284 98.194626,72.106758 
	C98.222412,82.101921 98.266998,92.097214 98.240280,102.092293 
	C98.209366,113.660309 98.180275,113.663162 109.724792,112.939293 
	C110.012665,112.921249 110.284691,112.650673 110.724190,112.410324 
	C110.724190,96.707428 111.644730,80.860840 110.446938,65.176018 
	C109.397804,51.437847 100.993591,45.244007 87.811935,46.036995 
	C79.610313,46.530392 73.200630,50.724556 67.184044,57.123878 
	C65.890831,56.177979 64.377724,55.426136 63.342243,54.252789 
	C58.711227,49.005203 53.248768,45.666061 45.551685,45.746094 
	C44.705242,45.843269 43.858799,45.940441 42.205669,45.861126 
	C35.535145,46.736332 29.538830,48.841076 25.058691,55.258854 
	C24.013725,55.582138 22.968761,55.905418 21.939138,55.397259 
M440.822388,72.359169 
	C439.456268,74.294487 438.090118,76.229797 436.723999,78.165115 
	C436.237274,78.027794 435.750580,77.890480 435.263885,77.753166 
	C435.263885,56.587509 435.263885,35.421852 435.263885,14.313425 
	C430.283447,14.313425 426.201447,14.313425 421.974121,14.313425 
	C421.974121,47.355595 421.974121,80.063667 421.974121,112.783325 
	C426.493683,112.783325 430.590271,112.783325 435.098572,112.783325 
	C436.175232,99.253815 432.517212,84.704346 444.371246,73.583389 
	C445.422211,75.269524 446.269470,76.495605 446.983124,77.795044 
	C452.352295,87.571541 457.549683,97.446999 463.150696,107.088226 
	C464.516846,109.439819 466.911469,112.147690 469.309174,112.729134 
	C473.184021,113.668793 477.453339,112.981842 482.095703,112.981842 
	C472.477539,95.991859 463.178894,79.566368 453.505280,62.478462 
	C459.746002,55.821297 466.515625,48.599964 473.285248,41.378628 
	C473.040802,41.046253 472.796356,40.713882 472.551910,40.381512 
	C471.497925,40.866154 470.173523,41.093620 469.431000,41.874439 
	C459.991150,51.800987 450.634857,61.807003 440.822388,72.359169 
M389.962097,99.476303 
	C389.692749,91.323280 389.792297,83.134911 389.015900,75.030464 
	C388.548950,70.156235 387.394318,65.105537 385.379486,60.664631 
	C377.402863,43.083492 349.513000,39.626289 334.841309,58.685913 
	C334.457458,59.184582 334.893555,60.314411 335.014740,62.200096 
	C336.357513,60.645889 336.869751,60.024757 337.411255,59.430298 
	C351.512939,43.949814 370.795258,51.832653 373.220337,67.218117 
	C374.813690,77.326828 375.252899,87.629303 375.946716,97.862793 
	C376.279388,102.769882 376.003967,107.718201 376.003967,112.518867 
	C389.551575,114.735023 389.731781,114.590019 389.953125,101.962448 
	C389.961884,101.462967 389.959320,100.963287 389.962097,99.476303 
M315.346436,79.500526 
	C315.346436,90.578545 315.346436,101.656563 315.346436,112.681961 
	C320.280029,112.681961 324.499908,112.681961 328.648529,112.681961 
	C330.429382,96.432777 326.201050,80.094620 333.187714,64.322823 
	C331.559235,64.468002 330.404572,64.570938 328.943146,64.701233 
	C328.943146,61.847118 328.984833,59.189854 328.935486,56.534279 
	C328.775116,47.899670 328.761505,48.108418 320.401245,48.076893 
	C316.603546,48.062576 315.452606,49.491581 315.481354,53.019035 
	C315.550659,61.512009 315.412079,70.006676 315.346436,79.500526 
M290.245667,48.941097 
	C286.185760,48.941097 282.125854,48.941097 278.357361,48.941097 
	C278.357361,70.745773 278.357361,91.767982 278.357361,112.703773 
	C282.878326,112.703773 286.942993,112.703773 290.919464,112.703773 
	C290.919464,91.421944 290.919464,70.515404 290.245667,48.941097 
M283.863586,38.028278 
	C285.140350,37.833923 286.540222,37.909409 287.670319,37.393669 
	C290.826324,35.953400 291.879883,33.335720 291.166656,29.983881 
	C290.459198,26.658895 289.089722,24.071123 285.123627,23.828545 
	C281.708038,23.619633 278.781128,24.071325 277.432007,27.760853 
	C276.172302,31.205662 277.075714,33.951252 280.137817,35.961323 
	C281.108582,36.598572 282.130737,37.157467 283.863586,38.028278 
M214.608490,114.584305 
	C216.639359,114.680702 218.670227,114.777100 220.999405,114.887657 
	C212.927124,111.300583 205.510986,108.005081 198.081436,104.703621 
	C201.503876,110.569633 207.677399,112.497444 214.608490,114.584305 
M198.162643,101.964935 
	C198.162643,101.964935 198.069748,101.741768 198.069748,101.741768 
	C198.069748,101.741768 198.208420,101.839195 198.162643,101.964935 
z"/>
<path fill="black" opacity="1.000000" stroke="none" 
	d="
M441.039856,72.075974 
	C450.634857,61.807003 459.991150,51.800987 469.431000,41.874439 
	C470.173523,41.093620 471.497925,40.866154 472.551910,40.381512 
	C472.796356,40.713882 473.040802,41.046253 473.285248,41.378628 
	C466.515625,48.599964 459.746002,55.821297 453.505280,62.478462 
	C463.178894,79.566368 472.477539,95.991859 482.095703,112.981842 
	C477.453339,112.981842 473.184021,113.668793 469.309174,112.729134 
	C466.911469,112.147690 464.516846,109.439819 463.150696,107.088226 
	C457.549683,97.446999 452.352295,87.571541 446.983124,77.795044 
	C446.269470,76.495605 445.422211,75.269524 444.371246,73.583389 
	C432.517212,84.704346 436.175232,99.253815 435.098572,112.783325 
	C430.590271,112.783325 426.493683,112.783325 421.974121,112.783325 
	C421.974121,80.063667 421.974121,47.355595 421.974121,14.313425 
	C426.201447,14.313425 430.283447,14.313425 435.263885,14.313425 
	C435.263885,35.421852 435.263885,56.587509 435.263885,77.753166 
	C435.750580,77.890480 436.237274,78.027794 436.723999,78.165115 
	C438.090118,76.229797 439.456268,74.294487 441.039856,72.075974 
z"/>
<path fill="black" opacity="1.000000" stroke="none" 
	d="
M162.423859,96.077301 
	C158.920975,104.344467 155.424515,112.614365 151.910706,120.876884 
	C151.038635,122.927513 150.224915,125.015175 149.181381,126.977875 
	C147.582397,129.985229 146.362289,133.537018 143.931778,135.650970 
	C141.980347,137.348236 137.963181,138.537094 135.767746,137.667252 
	C132.106552,136.216644 131.043472,131.963425 132.380264,128.276581 
	C132.961319,126.674042 135.574905,125.322556 137.517441,124.807014 
	C140.912659,123.905952 144.931366,126.778862 147.929077,122.614952 
	C151.345993,117.868744 150.747299,112.902443 149.105087,108.036751 
	C146.345078,99.859207 143.051117,91.863503 140.097046,83.749329 
	C137.653122,77.036423 135.673645,70.137154 132.901306,63.568226 
	C131.468857,60.174099 128.885773,57.220345 126.575134,54.260818 
	C125.388428,52.740860 123.658493,51.645027 122.220894,50.398170 
	C125.203644,45.561783 133.053009,44.727592 137.855652,49.120388 
	C140.557037,51.591236 142.791962,55.017437 144.136017,58.444988 
	C148.499603,69.572861 152.283188,80.926994 156.490509,92.118668 
	C157.063446,93.642723 158.776474,94.738174 160.689896,95.924347 
	C161.753403,95.903511 162.088623,95.990410 162.423859,96.077301 
z"/>
<path fill="black" opacity="1.000000" stroke="none" 
	d="
M389.962036,99.970001 
	C389.959320,100.963287 389.961884,101.462967 389.953125,101.962448 
	C389.731781,114.590019 389.551575,114.735023 376.003967,112.518867 
	C376.003967,107.718201 376.279388,102.769882 375.946716,97.862793 
	C375.252899,87.629303 374.813690,77.326828 373.220337,67.218117 
	C370.795258,51.832653 351.512939,43.949814 337.411255,59.430298 
	C336.869751,60.024757 336.357513,60.645889 335.014740,62.200096 
	C334.893555,60.314411 334.457458,59.184582 334.841309,58.685913 
	C349.513000,39.626289 377.402863,43.083492 385.379486,60.664631 
	C387.394318,65.105537 388.548950,70.156235 389.015900,75.030464 
	C389.792297,83.134911 389.692749,91.323280 389.962036,99.970001 
z"/>
<path fill="black" opacity="1.000000" stroke="none" 
	d="
M55.013271,107.003220 
	C54.975597,96.576401 55.088799,86.145767 54.825024,75.724678 
	C54.721413,71.631294 54.126534,67.471756 53.138508,63.495636 
	C51.050457,55.092709 45.909981,51.642365 36.457489,52.124733 
	C35.447903,52.121979 35.190937,52.304363 35.026871,52.617645 
	C33.010239,53.748425 30.993610,54.879208 28.315985,55.933220 
	C27.007771,55.539185 26.360550,55.221916 25.713331,54.904652 
	C29.538830,48.841076 35.535145,46.736332 42.791374,46.195152 
	C44.248787,46.362316 45.120502,46.195454 45.992214,46.028587 
	C53.248768,45.666061 58.711227,49.005203 63.342243,54.252789 
	C64.377724,55.426136 65.890831,56.177979 67.699631,57.305592 
	C68.535889,58.123852 68.856544,58.760399 69.177200,59.396950 
	C68.685585,68.243134 68.001183,77.083977 67.756447,85.936989 
	C67.510513,94.833015 67.702362,103.741135 67.702362,113.652756 
	C63.152599,113.002190 59.083649,112.420372 55.278915,111.201294 
	C55.366516,109.377098 55.189896,108.190155 55.013271,107.003220 
z"/>
<path fill="black" opacity="1.000000" stroke="none" 
	d="
M69.500824,59.256920 
	C68.856544,58.760399 68.535889,58.123852 68.075523,57.158974 
	C73.200630,50.724556 79.610313,46.530392 87.811935,46.036995 
	C100.993591,45.244007 109.397804,51.437847 110.446938,65.176018 
	C111.644730,80.860840 110.724190,96.707428 110.724190,112.410324 
	C110.284691,112.650673 110.012665,112.921249 109.724792,112.939293 
	C98.180275,113.663162 98.209366,113.660309 98.240280,102.092293 
	C98.266998,92.097214 98.222412,82.101921 98.194626,72.106758 
	C98.190926,70.775284 98.179039,69.435638 98.037193,68.114128 
	C97.309135,61.331249 95.394279,55.018230 88.053658,52.874779 
	C80.779953,50.750870 74.464981,52.841164 69.500824,59.256920 
z"/>
<path fill="black" opacity="1.000000" stroke="none" 
	d="
M226.993652,112.970085 
	C232.168121,110.596939 234.972397,106.934265 234.744629,100.868584 
	C234.509003,94.594200 231.256149,91.021866 225.757874,89.062248 
	C219.803009,86.939903 213.735458,85.128502 207.810364,82.929985 
	C204.558807,81.723480 201.218109,80.401611 198.403732,78.435791 
	C187.778183,71.013885 188.330704,57.031033 199.345764,50.220421 
	C200.617355,49.434196 201.981277,48.797314 203.669693,48.341522 
	C204.008469,49.028854 203.979950,49.465855 203.951416,49.902855 
	C197.985596,55.395908 197.815628,63.606510 204.420242,68.288170 
	C209.073700,71.586769 214.658112,73.658119 219.989334,75.889198 
	C224.886536,77.938637 230.119537,79.193207 234.993683,81.288574 
	C243.520264,84.954086 247.951279,92.039291 247.200317,99.984573 
	C246.548004,106.886391 240.993484,112.004517 231.779144,114.136856 
	C230.325363,114.473297 228.832184,114.639572 227.072723,114.392815 
	C226.856705,113.590775 226.925186,113.280426 226.993652,112.970085 
z"/>
<path fill="black" opacity="1.000000" stroke="none" 
	d="
M315.351898,79.000595 
	C315.412079,70.006676 315.550659,61.512009 315.481354,53.019035 
	C315.452606,49.491581 316.603546,48.062576 320.401245,48.076893 
	C328.761505,48.108418 328.775116,47.899670 328.935486,56.534279 
	C328.984833,59.189854 328.943146,61.847118 328.943146,64.701233 
	C330.404572,64.570938 331.559235,64.468002 333.187714,64.322823 
	C326.201050,80.094620 330.429382,96.432777 328.648529,112.681961 
	C324.499908,112.681961 320.280029,112.681961 315.346436,112.681961 
	C315.346436,101.656563 315.346436,90.578545 315.351898,79.000595 
z"/>
<path fill="black" opacity="1.000000" stroke="none" 
	d="
M290.582581,49.274982 
	C290.919464,70.515404 290.919464,91.421944 290.919464,112.703773 
	C286.942993,112.703773 282.878326,112.703773 278.357361,112.703773 
	C278.357361,91.767982 278.357361,70.745773 278.357361,48.941097 
	C282.125854,48.941097 286.185760,48.941097 290.582581,49.274982 
z"/>
<path fill="black" opacity="1.000000" stroke="none" 
	d="
M16.000053,112.926315 
	C15.551542,113.002380 15.103030,113.078438 14.319517,112.652039 
	C12.996330,107.536354 11.367026,102.952614 11.153217,98.303780 
	C10.705970,88.579292 11.088982,78.818642 10.875547,69.078438 
	C10.852640,68.033051 9.142065,67.024651 8.214371,65.999092 
	C8.138009,63.621941 8.061648,61.244789 8.476282,58.417248 
	C9.651232,56.707050 10.239033,55.381306 11.045360,54.205410 
	C11.904298,52.952793 12.969978,51.841942 13.945395,50.669193 
	C14.956227,51.744385 16.469200,52.654308 16.887280,53.924591 
	C18.363340,58.409401 19.371748,62.608643 18.359438,67.847427 
	C16.713684,76.364319 17.497805,85.329605 16.945297,94.086006 
	C16.549143,100.364441 19.277462,106.803650 16.000053,112.926315 
z"/>
<path fill="black" opacity="1.000000" stroke="none" 
	d="
M16.435390,113.030724 
	C19.277462,106.803650 16.549143,100.364441 16.945297,94.086006 
	C17.497805,85.329605 16.713684,76.364319 18.359438,67.847427 
	C19.371748,62.608643 18.363340,58.409401 16.887280,53.924591 
	C16.469200,52.654308 14.956227,51.744385 13.945395,50.669193 
	C12.969978,51.841942 11.904298,52.952793 11.045360,54.205410 
	C10.239033,55.381306 9.651232,56.707050 8.586465,57.983788 
	C8.140682,55.625420 8.075712,53.250126 8.423375,50.409519 
	C9.228247,49.354565 9.620484,48.764923 10.012722,48.175282 
	C13.671717,48.529526 17.330711,48.883770 20.747034,49.787750 
	C20.752596,51.237434 21.000830,52.137371 21.249063,53.037312 
	C21.479090,53.823959 21.709114,54.610611 21.995377,56.148682 
	C23.177532,57.646584 24.303450,58.393066 25.429367,59.139553 
	C24.195452,62.179054 22.961536,65.218552 21.213533,68.771500 
	C20.792109,72.187965 20.884775,75.090996 20.977440,77.994026 
	C21.044815,82.693527 21.112190,87.393036 20.791431,92.836044 
	C20.598589,97.052124 20.793875,100.524712 20.989162,103.997292 
	C20.989162,106.749741 20.989162,109.502182 20.989162,112.774742 
	C19.605505,112.895821 18.238115,113.015480 16.435390,113.030724 
z"/>
<path fill="black" opacity="1.000000" stroke="none" 
	d="
M283.496490,37.890247 
	C282.130737,37.157467 281.108582,36.598572 280.137817,35.961323 
	C277.075714,33.951252 276.172302,31.205662 277.432007,27.760853 
	C278.781128,24.071325 281.708038,23.619633 285.123627,23.828545 
	C289.089722,24.071123 290.459198,26.658895 291.166656,29.983881 
	C291.879883,33.335720 290.826324,35.953400 287.670319,37.393669 
	C286.540222,37.909409 285.140350,37.833923 283.496490,37.890247 
z"/>
<path fill="black" opacity="1.000000" stroke="none" 
	d="
M8.110708,66.457619 
	C9.142065,67.024651 10.852640,68.033051 10.875547,69.078438 
	C11.088982,78.818642 10.705970,88.579292 11.153217,98.303780 
	C11.367026,102.952614 12.996330,107.536354 13.992230,112.539658 
	C9.355859,114.078636 7.957644,112.184067 8.028830,107.557655 
	C8.237228,94.013809 8.043327,80.463760 8.110708,66.457619 
z"/>
<path fill="black" opacity="1.000000" stroke="none" 
	d="
M166.018082,81.600334 
	C169.295883,70.199684 171.955917,58.577271 177.462967,47.976887 
	C178.081741,48.169403 178.700516,48.361919 179.319290,48.554440 
	C175.555084,59.752571 171.790878,70.950706 167.447266,82.128853 
	C166.584595,81.939354 166.301331,81.769844 166.018082,81.600334 
z"/>
<path fill="black" opacity="1.000000" stroke="none" 
	d="
M214.239410,114.490234 
	C207.677399,112.497444 201.503876,110.569633 198.081436,104.703621 
	C205.510986,108.005081 212.927124,111.300583 220.999405,114.887657 
	C218.670227,114.777100 216.639359,114.680702 214.239410,114.490234 
z"/>
<path fill="black" opacity="1.000000" stroke="none" 
	d="
M225.986938,47.064182 
	C232.484665,48.487026 236.873627,52.228008 239.187347,57.923347 
	C234.427383,54.916698 229.646027,51.896545 224.907288,48.488205 
	C225.295578,47.754738 225.641251,47.409462 225.986938,47.064182 
z"/>
<path fill="black" opacity="1.000000" stroke="none" 
	d="
M225.595581,46.927147 
	C225.641251,47.409462 225.295578,47.754738 224.618652,48.270035 
	C217.764709,48.894573 211.242020,49.349087 204.335388,49.853226 
	C203.979950,49.465855 204.008469,49.028854 204.014130,48.263680 
	C210.914047,44.808594 218.054840,45.719753 225.595581,46.927147 
z"/>
<path fill="black" opacity="1.000000" stroke="none" 
	d="
M162.667633,95.823402 
	C162.088623,95.990410 161.753403,95.903511 160.910507,95.706482 
	C161.916489,91.571770 163.430130,87.547180 165.516388,83.635513 
	C166.378540,83.972458 166.668091,84.196472 166.957657,84.420486 
	C165.608917,88.136818 164.260162,91.853157 162.667633,95.823402 
z"/>
<path fill="black" opacity="1.000000" stroke="none" 
	d="
M21.117781,103.628860 
	C20.793875,100.524712 20.598589,97.052124 20.690695,93.293213 
	C21.067526,96.424721 21.156961,99.842575 21.117781,103.628860 
z"/>
<path fill="black" opacity="1.000000" stroke="none" 
	d="
M21.106106,77.623779 
	C20.884775,75.090996 20.792109,72.187965 21.020401,69.123024 
	C21.305830,71.725250 21.270302,74.489388 21.106106,77.623779 
z"/>
<path fill="black" opacity="1.000000" stroke="none" 
	d="
M25.702099,59.010563 
	C24.303450,58.393066 23.177532,57.646584 21.987705,56.564400 
	C22.968761,55.905418 24.013725,55.582138 25.386011,55.081753 
	C26.360550,55.221916 27.007771,55.539185 27.984262,56.005280 
	C27.533968,57.063263 26.754398,57.972416 25.702099,59.010563 
z"/>
<path fill="black" opacity="1.000000" stroke="none" 
	d="
M54.887703,107.268639 
	C55.189896,108.190155 55.366516,109.377098 55.287785,110.776505 
	C54.942333,109.837341 54.852234,108.685699 54.887703,107.268639 
z"/>
<path fill="black" opacity="1.000000" stroke="none" 
	d="
M21.342331,52.737831 
	C21.000830,52.137371 20.752596,51.237434 20.735350,50.174511 
	C21.122759,50.820469 21.279179,51.629414 21.342331,52.737831 
z"/>
<path fill="black" opacity="1.000000" stroke="none" 
	d="
M45.771950,45.887344 
	C45.120502,46.195454 44.248787,46.362316 43.194717,46.283398 
	C43.858799,45.940441 44.705242,45.843269 45.771950,45.887344 
z"/>
<path fill="black" opacity="1.000000" stroke="none" 
	d="
M226.570770,112.908875 
	C226.925186,113.280426 226.856705,113.590775 226.596802,114.337723 
	C225.371094,114.774323 224.336838,114.774323 223.302567,114.774323 
	C223.225220,114.392296 223.147873,114.010262 223.070541,113.628235 
	C224.096329,113.368050 225.122116,113.107857 226.570770,112.908875 
z"/>
<path fill="black" opacity="1.000000" stroke="none" 
	d="
M9.698124,48.083603 
	C9.620484,48.764923 9.228247,49.354565 8.549955,49.981308 
	C8.637110,49.342918 9.010318,48.667423 9.698124,48.083603 
z"/>
<path fill="black" opacity="1.000000" stroke="none" 
	d="
M198.185532,101.902069 
	C198.208420,101.839195 198.069748,101.741768 198.069748,101.741768 
	C198.069748,101.741768 198.162643,101.964935 198.185532,101.902069 
z"/>
<path fill="black" opacity="1.000000" stroke="none" 
	d="
M167.246826,82.427528 
	C167.498245,83.183746 167.370697,83.621307 167.100403,84.239677 
	C166.668091,84.196472 166.378540,83.972458 165.739883,83.324005 
	C165.509232,82.551567 165.627686,82.203575 165.882111,81.727959 
	C166.301331,81.769844 166.584595,81.939354 167.246826,82.427528 
z"/>
<path fill="black" opacity="1.000000" stroke="none" 
	d="
M35.274582,52.661903 
	C35.190937,52.304363 35.447903,52.121979 36.040764,52.093781 
	C36.029942,52.313435 35.776119,52.509800 35.274582,52.661903 
z"/>
</svg>