<svg id="Layer_1" data-name="Layer 1" xmlns="http://www.w3.org/2000/svg" viewBox="0 0 861.02 96.49"><defs><style>.cls-1{fill:#00b67a;}.cls-2{fill:#dcdce6;}.cls-3{fill:#fff;}.cls-4{fill:#005128;}.cls-5{fill:#73cf11;}</style></defs><g id="Trustpilot_ratings_4halfstar-RGB" data-name="Trustpilot ratings 4halfstar-RGB"><rect id="Rectangle-path" class="cls-1" y="0.14" width="96" height="96"/><rect class="cls-1" x="104" y="0.14" width="96" height="96"/><rect class="cls-1" x="208" y="0.14" width="96" height="96"/><rect class="cls-1" x="312" y="0.14" width="96" height="96"/><g id="Half"><rect class="cls-2" x="464" y="0.14" width="48" height="96"/><rect class="cls-1" x="416" y="0.14" width="48" height="96"/></g><path id="Shape" class="cls-3" d="M48.34,64.3l14.6-3.7L69,79.4ZM81.94,40H56.24l-7.9-24.2L40.44,40H14.74l20.8,15-7.9,24.2,20.8-15L61.24,55Z" transform="translate(0 0.14)"/><path class="cls-3" d="M152.34,64.3l14.6-3.7L173,79.4ZM185.94,40h-25.7l-7.9-24.2L144.44,40h-25.7l20.8,15-7.9,24.2,20.8-15,12.8-9.2,20.7-15Z" transform="translate(0 0.14)"/><path class="cls-3" d="M256.34,64.3l14.6-3.7L277,79.4ZM289.94,40h-25.7l-7.9-24.2L248.44,40h-25.7l20.8,15-7.9,24.2,20.8-15,12.8-9.2Z" transform="translate(0 0.14)"/><path class="cls-3" d="M360.34,64.3l14.6-3.7L381,79.4ZM393.94,40h-25.7l-7.9-24.2L352.44,40h-25.7l20.8,15-7.9,24.2,20.8-15,12.8-9.2,20.7-15Z" transform="translate(0 0.14)"/><path class="cls-3" d="M464.34,64.3l14.6-3.7L485,79.4ZM497.94,40h-25.7l-7.9-24.2L456.44,40h-25.7l20.8,15-7.9,24.2,20.8-15,12.8-9.2,20.7-15Z" transform="translate(0 0.14)"/></g><g id="Type"><path class="cls-3" d="M619.25,38.35h33.27v6.08h-13V79.17h-7.24V44.43h-13V38.35Zm31.56,11.29h6.34v5.79h0a6.8,6.8,0,0,1,1.14-2.34A10.79,10.79,0,0,1,663,49.47a8.09,8.09,0,0,1,3-.58,10.66,10.66,0,0,1,1.61.06,8.39,8.39,0,0,0,.91.11v6.31c-.47-.08-.94-.14-1.44-.2a11.32,11.32,0,0,0-1.43-.09,7.83,7.83,0,0,0-3.16.67,7.36,7.36,0,0,0-2.58,1.94,9.89,9.89,0,0,0-1.75,3.18,13.26,13.26,0,0,0-.65,4.38V79.46h-6.66V49.64Zm47.75,29.82h-6.37V75.12h-.12a9,9,0,0,1-3.59,3.62,9.85,9.85,0,0,1-4.87,1.37c-3.92,0-6.76-1-8.5-2.92s-2.61-4.9-2.61-8.84v-19h6.37V67.79c.06,2.61.56,4.46,1.57,5.53a5.42,5.42,0,0,0,4.2,1.63,8.13,8.13,0,0,0,3.44-.64,5.86,5.86,0,0,0,2.23-1.71,6.47,6.47,0,0,0,1.25-2.55,10.87,10.87,0,0,0,.34-3.21V49.64h6.66Zm11-9.61a5,5,0,0,0,2.17,4A8.7,8.7,0,0,0,716.27,75c.6,0,1.29-.06,2.07-.14a8.87,8.87,0,0,0,2.2-.55,4.24,4.24,0,0,0,1.7-1.19,3.11,3.11,0,0,0-.31-4.07,6.54,6.54,0,0,0-2.2-1.3,21.65,21.65,0,0,0-3.06-.84c-1.16-.23-2.31-.49-3.5-.75a32.85,32.85,0,0,1-3.52-1,10.34,10.34,0,0,1-3-1.56,6.74,6.74,0,0,1-2.14-2.48,7.79,7.79,0,0,1-.81-3.76,6.7,6.7,0,0,1,1.19-4,8.93,8.93,0,0,1,3-2.63,13.55,13.55,0,0,1,4-1.42,23.82,23.82,0,0,1,4.21-.4,19.63,19.63,0,0,1,4.39.49,11.35,11.35,0,0,1,3.75,1.6,9.33,9.33,0,0,1,2.8,2.83A9.85,9.85,0,0,1,728.45,58h-6.81a4.07,4.07,0,0,0-2.14-3.15,8.77,8.77,0,0,0-3.87-.81,11.45,11.45,0,0,0-1.65.12,8.49,8.49,0,0,0-1.79.43,3.87,3.87,0,0,0-1.41.92,2.25,2.25,0,0,0-.58,1.59A2.48,2.48,0,0,0,711,59a6.94,6.94,0,0,0,2.16,1.24,21.78,21.78,0,0,0,3.07.84c1.15.23,2.33.49,3.55.75a35.56,35.56,0,0,1,3.49,1,10.66,10.66,0,0,1,3.06,1.56,7.72,7.72,0,0,1,2.17,2.45,7.44,7.44,0,0,1,.84,3.67A8,8,0,0,1,728.17,75a9.72,9.72,0,0,1-3.12,3,14.72,14.72,0,0,1-4.28,1.67,21.45,21.45,0,0,1-4.65.52,19.85,19.85,0,0,1-5.2-.63,12.64,12.64,0,0,1-4.13-1.91,9.52,9.52,0,0,1-2.74-3.21,10.44,10.44,0,0,1-1-4.56h6.58Zm21.66-20.21h5v-9h6.66v9h5.79v4.92h-6.08V70.43q0,.9.09,1.8a3.33,3.33,0,0,0,.41,1.27,1.89,1.89,0,0,0,1,.78,5.07,5.07,0,0,0,1.77.26h1.42a7.37,7.37,0,0,0,1.41-.2v5c-.72.09-1.44.14-2.11.23a14.85,14.85,0,0,1-2.11.12,14.31,14.31,0,0,1-4.17-.5,5.26,5.26,0,0,1-2.46-1.44,4.94,4.94,0,0,1-1.22-2.38,18,18,0,0,1-.38-3.27V54.56h-4.92V49.64Zm22.07,0h6.08v4h.21a7.88,7.88,0,0,1,3.85-3.79,12.67,12.67,0,0,1,5.35-1.13A13.83,13.83,0,0,1,774.89,50a12,12,0,0,1,4.35,3.38,15,15,0,0,1,2.57,5,22,22,0,0,1,.09,11.93,15.28,15.28,0,0,1-2.35,5,11.45,11.45,0,0,1-4,3.45,11.91,11.91,0,0,1-5.71,1.3A16.1,16.1,0,0,1,767,79.8a12,12,0,0,1-2.75-.84,10.13,10.13,0,0,1-2.44-1.48,8.61,8.61,0,0,1-1.88-2.11h-.26V90.14h-6.37Zm22.85,14.82a15.08,15.08,0,0,0-.52-3.9,10.44,10.44,0,0,0-1.57-3.36,7.64,7.64,0,0,0-12.36-.35,12.77,12.77,0,0,0-2.09,7.64,14.7,14.7,0,0,0,.55,4.17A9.32,9.32,0,0,0,761.8,72a7.85,7.85,0,0,0,2.61,2.18,8.16,8.16,0,0,0,7.33-.12,7.88,7.88,0,0,0,2.54-2.37,9.9,9.9,0,0,0,1.45-3.33,18.54,18.54,0,0,0,.41-3.86Zm11.6-26.11h6.66v6.08h-6.66Zm0,11.29h6.66V79.46h-6.66ZM799.9,38.35h6.66V79.46H799.9ZM826.69,80.1a16.2,16.2,0,0,1-6.34-1.19,13.25,13.25,0,0,1-7.64-8.19,20.25,20.25,0,0,1,0-12.57,14.16,14.16,0,0,1,2.92-5A13.32,13.32,0,0,1,820.35,50,17.47,17.47,0,0,1,833,50a13.83,13.83,0,0,1,4.72,3.24,14.19,14.19,0,0,1,2.93,5,20.25,20.25,0,0,1,0,12.57,14.19,14.19,0,0,1-2.93,5A13.24,13.24,0,0,1,833,79.05,16.18,16.18,0,0,1,826.69,80.1Zm0-5.18a7.51,7.51,0,0,0,3.8-.93,8.05,8.05,0,0,0,2.63-2.4,10.91,10.91,0,0,0,1.54-3.36,15.88,15.88,0,0,0,.49-3.82,16.23,16.23,0,0,0-.49-3.8,9.88,9.88,0,0,0-1.54-3.36,8,8,0,0,0-2.63-2.37,7.84,7.84,0,0,0-10.22,2.37,10.46,10.46,0,0,0-1.54,3.36,15.13,15.13,0,0,0,0,7.62,10.25,10.25,0,0,0,1.54,3.36A8.05,8.05,0,0,0,822.9,74,7.28,7.28,0,0,0,826.69,74.92Zm16.88-25.28h5v-9h6.66v9H861v4.92h-6.08V70.43q0,.9.09,1.8a3.33,3.33,0,0,0,.41,1.27,1.84,1.84,0,0,0,1,.78,5.07,5.07,0,0,0,1.77.26h1.41a7.59,7.59,0,0,0,1.42-.2v5c-.72.09-1.45.14-2.11.23a15,15,0,0,1-2.12.12,14.66,14.66,0,0,1-4.17-.5,5.45,5.45,0,0,1-2.46-1.44A5,5,0,0,1,849,75.37a17.17,17.17,0,0,1-.38-3.27V54.56h-4.92V49.64Z" transform="translate(0 0.14)"/></g><g id="Star"><polygon class="cls-1" points="611.56 38.49 581.56 38.49 572.29 9.94 563 38.49 533 38.46 557.29 56.12 548 84.64 572.29 67.01 596.56 84.64 587.29 56.12 611.56 38.49 611.56 38.49 611.56 38.49"/><polygon class="cls-4" points="589.38 62.49 587.29 56.04 572.29 66.92 589.38 62.49"/></g><g id="Trustpilot_ratings_4star-RGB" data-name="Trustpilot ratings 4star-RGB"><rect id="Rectangle-path-2" data-name="Rectangle-path" class="cls-5" x="0.07" width="95.99" height="96.49"/><rect id="Rectangle-path-3" data-name="Rectangle-path" class="cls-5" x="104.06" width="95.99" height="96.49"/><rect id="Rectangle-path-4" data-name="Rectangle-path" class="cls-5" x="208.05" width="95.99" height="96.49"/><rect id="Rectangle-path-5" data-name="Rectangle-path" class="cls-5" x="312.04" width="95.99" height="96.49"/><rect id="Rectangle-path-6" data-name="Rectangle-path" class="cls-2" x="416.03" width="95.99" height="96.49"/><path id="Shape-2" data-name="Shape" class="cls-3" d="M48.06,64.89l14.6-3.72,6.1,18.89Zm33.6-24.43H56l-7.9-24.32-7.9,24.32H14.47L35.26,55.54l-7.9,24.32,20.8-15.07L61,55.54l20.7-15.08Z" transform="translate(0 0.14)"/><path id="Shape-3" data-name="Shape" class="cls-3" d="M152.05,64.89l14.6-3.72,6.1,18.89Zm33.6-24.43H160l-7.9-24.32-7.9,24.32H118.46l20.79,15.08-7.9,24.32,20.8-15.07L165,55.54l20.7-15.08Z" transform="translate(0 0.14)"/><path id="Shape-4" data-name="Shape" class="cls-3" d="M256,64.89l14.6-3.72,6.1,18.89Zm33.6-24.43h-25.7L256,16.14l-7.9,24.32h-25.7l20.8,15.08-7.9,24.32,20.8-15.07,12.8-9.25,20.7-15.08Z" transform="translate(0 0.14)"/><path id="Shape-5" data-name="Shape" class="cls-3" d="M360,64.89l14.6-3.72,6.1,18.89Zm33.6-24.43h-25.7L360,16.14l-7.9,24.32h-25.7l20.8,15.08-7.9,24.32,20.8-15.07,12.8-9.25,20.7-15.08Z" transform="translate(0 0.14)"/><path id="Shape-6" data-name="Shape" class="cls-3" d="M464,64.89l14.6-3.72,6.1,18.89Zm33.6-24.43h-25.7L464,16.14l-7.9,24.32h-25.7l20.8,15.08-7.9,24.32,20.8-15.07,12.8-9.25,20.7-15.08Z" transform="translate(0 0.14)"/></g></svg>